<svg xmlns="http://www.w3.org/2000/svg" width="42" height="51" viewBox="0 0 42 51" fill="none"><path opacity="0.05" fill-rule="evenodd" clip-rule="evenodd" d="M6.2068 31.0127C14.3892 26.3187 27.5421 26.3187 35.648 30.937C39.0127 32.9054 40.7715 35.2524 41.3068 37.7509C32.2068 43.1262 17.7539 51 17.6009 51C13.548 50.7729 9.64797 49.713 6.05386 47.8202C-1.97555 43.202 -1.97555 35.631 6.2068 31.0127Z" fill="url(#paint0_linear_1846_3129)"></path><path fill-rule="evenodd" clip-rule="evenodd" d="M0.0883006 25.7131C1.77065 35.8582 18.1354 37.2967 18.1354 37.2967C18.1354 37.2967 18.1354 42.6721 17.6765 44.4134C13.6236 44.1863 9.72359 43.1264 6.12948 41.2336C2.15301 39.038 0.164771 36.0854 0.0883006 33.1327C-0.0646405 30.0286 0.01183 29.7257 0.0883006 25.7131Z" fill="url(#paint1_linear_1846_3129)"></path><path fill-rule="evenodd" clip-rule="evenodd" d="M17.6758 37.0694C25.8581 32.3754 41.3052 24.0474 41.3052 24.0474V31.1641L17.6758 44.489C17.6758 44.489 17.6758 41.3092 17.6758 37.0694Z" fill="url(#paint2_linear_1846_3129)"></path><path fill-rule="evenodd" clip-rule="evenodd" d="M6.2068 17.3093C14.3892 12.6153 27.5421 12.6153 35.648 17.2336C39.0127 19.2021 40.7715 21.5491 41.3068 24.0475C32.2068 29.4229 17.7539 37.2967 17.6009 37.2967C13.548 37.0695 9.64797 36.0096 6.05386 34.1169C-1.97555 29.4986 -1.97555 22.0033 6.2068 17.3093Z" fill="url(#paint3_linear_1846_3129)"></path><path fill-rule="evenodd" clip-rule="evenodd" d="M0.0881894 11.8582C1.77054 22.0033 18.1352 23.5174 18.1352 23.5174C18.1352 23.5174 17.8294 30.6342 17.6764 30.6342C13.7 30.407 9.72348 29.3471 6.20584 27.4544C2.30584 25.1831 0.24113 22.3061 0.16466 19.3534C-0.0647519 16.1736 0.0117188 15.9465 0.0881894 11.8582Z" fill="url(#paint4_linear_1846_3129)"></path><path fill-rule="evenodd" clip-rule="evenodd" d="M17.6758 23.2147C25.8581 18.5207 41.3052 10.0413 41.3052 10.0413V17.158L17.6758 30.6343C17.6758 30.6343 17.6758 27.4545 17.6758 23.2147Z" fill="url(#paint5_linear_1846_3129)"></path><path fill-rule="evenodd" clip-rule="evenodd" d="M6.2068 3.53002C14.3892 -1.16398 27.5421 -1.16398 35.648 3.45431C39.0127 5.42276 40.7715 7.76976 41.3068 10.2682C32.2068 15.6436 17.7539 23.5174 17.6009 23.5174C13.548 23.2903 9.64797 22.2303 6.05386 20.3376C-1.97555 15.6436 -1.97555 8.14831 6.2068 3.53002Z" fill="url(#paint6_linear_1846_3129)"></path><path d="M9.64766 17.9149C3.75942 14.5837 3.83589 9.05689 9.72413 5.64995C15.6124 2.24301 25.2477 2.24301 31.1359 5.57424" stroke="#818696" stroke-width="2" stroke-linecap="round" stroke-linejoin="round"></path><path d="M9.64765 17.9147C5.44177 15.492 4.29471 12.0093 6.13 8.98096" stroke="url(#paint7_linear_1846_3129)" stroke-width="2" stroke-miterlimit="10" stroke-linecap="round"></path><path fill-rule="evenodd" clip-rule="evenodd" d="M11.9671 8.29982C11.4237 8.20156 10.9034 8.56248 10.8052 9.10596C10.7069 9.64943 11.0679 10.1697 11.6113 10.2679L18.1548 11.4509C18.2594 11.7413 18.5081 12.0144 18.9008 12.2366C20.1243 12.8423 21.6537 12.8423 22.8772 12.2366C23.9478 11.6309 23.9478 10.571 22.8772 9.96533C21.8869 9.47507 20.6961 9.38164 19.6293 9.68507L11.9671 8.29982Z" fill="url(#paint8_linear_1846_3129)"></path><defs><linearGradient id="paint0_linear_1846_3129" x1="0.0507636" y1="39.2413" x2="41.3068" y2="39.2413" gradientUnits="userSpaceOnUse"><stop></stop><stop offset="1"></stop></linearGradient><linearGradient id="paint1_linear_1846_3129" x1="18.1354" y1="40.4518" x2="-1.54799" y2="37.3256" gradientUnits="userSpaceOnUse"><stop stop-color="#001DAC"></stop><stop offset="1" stop-color="#000F57"></stop></linearGradient><linearGradient id="paint2_linear_1846_3129" x1="17.6758" y1="25.5431" x2="42.6342" y2="28.2976" gradientUnits="userSpaceOnUse"><stop stop-color="#0082F8"></stop><stop offset="1" stop-color="#1C40F2"></stop></linearGradient><linearGradient id="paint3_linear_1846_3129" x1="0.050781" y1="15.5001" x2="42.9544" y2="22.686" gradientUnits="userSpaceOnUse"><stop stop-color="#0082F8"></stop><stop offset="1" stop-color="#1C40F2"></stop></linearGradient><linearGradient id="paint4_linear_1846_3129" x1="0.0117188" y1="21.2462" x2="18.097" y2="21.2462" gradientUnits="userSpaceOnUse"><stop stop-color="#989AAD"></stop><stop offset="1" stop-color="#98A0B7"></stop></linearGradient><linearGradient id="paint5_linear_1846_3129" x1="45.1059" y1="18.8108" x2="48.8138" y2="18.4409" gradientUnits="userSpaceOnUse"><stop stop-color="#E7E9E9"></stop><stop offset="1" stop-color="#98AACD"></stop></linearGradient><linearGradient id="paint6_linear_1846_3129" x1="38.9445" y1="14.1525" x2="-1.95374" y2="8.83253" gradientUnits="userSpaceOnUse"><stop stop-color="#CDD3DB"></stop><stop offset="1" stop-color="#ACB0C2"></stop></linearGradient><linearGradient id="paint7_linear_1846_3129" x1="5.28516" y1="9.63465" x2="9.93902" y2="9.85162" gradientUnits="userSpaceOnUse"><stop stop-color="#0082F8"></stop><stop offset="1" stop-color="#1C40F2"></stop></linearGradient><linearGradient id="paint8_linear_1846_3129" x1="10.7891" y1="8.60617" x2="23.574" y2="12.1765" gradientUnits="userSpaceOnUse"><stop stop-color="#0082F8"></stop><stop offset="1" stop-color="#1C40F2"></stop></linearGradient></defs></svg>