<svg xmlns="http://www.w3.org/2000/svg" width="55" height="59" viewBox="0 0 55 59" fill="none"><path d="M28.6103 42.0156L4.36719 29.3333V37.7882L28.6103 51.8509V42.0156Z" fill="url(#paint0_linear_1846_3185)"></path><path d="M52.5078 37.7882V29.3333L28.5234 42.1019L28.6097 51.8509L52.5078 37.7882Z" fill="url(#paint1_linear_1846_3185)"></path><path d="M4.36719 29.3333L28.5241 43.396L52.5084 29.3333L28.4378 15.2705L4.36719 29.3333Z" fill="url(#paint2_linear_1846_3185)"></path><path d="M28.6103 28.4707L4.36719 15.7883V24.2432L28.6103 38.306V28.4707Z" fill="url(#paint3_linear_1846_3185)"></path><path d="M52.5078 24.2432V15.7883L28.5234 28.557L28.6097 38.306L52.5078 24.2432Z" fill="url(#paint4_linear_1846_3185)"></path><path d="M4.36719 15.7881L28.5241 29.7646L52.5084 15.7881L28.4378 1.72534L4.36719 15.7881Z" fill="url(#paint5_linear_1846_3185)"></path><path d="M9.54366 16.9959L4.36719 13.9763V15.7881L9.54366 18.8077V16.9959Z" fill="url(#paint6_linear_1846_3185)"></path><path d="M33.5312 4.74511V2.93335L9.54688 15.7883V18.8079L33.5312 4.74511Z" fill="url(#paint7_linear_1846_3185)"></path><path d="M4.36719 14.0627L9.54366 16.9961L33.4417 2.93333L28.4378 0L4.36719 14.0627Z" fill="url(#paint8_linear_1846_3185)"></path><path d="M23.2614 19.6711C23.0026 19.4986 22.7438 19.2397 22.5712 18.8946C22.485 18.6358 22.3987 18.377 22.485 18.2044C22.5712 17.9456 22.6575 17.6868 22.8301 17.5142C23.0889 17.2554 23.3477 17.0829 23.6065 16.9103C23.9516 16.7378 24.2967 16.5652 24.7281 16.4789C25.0732 16.3927 25.5046 16.3064 25.8497 16.3064C26.1948 16.3064 26.6261 16.3064 26.9712 16.3927C27.3163 16.4789 27.6614 16.5652 27.9202 16.7378C28.0928 16.824 28.3516 16.9966 28.5242 17.1691C28.6104 17.2554 28.6967 17.428 28.783 17.6005C28.783 17.7731 28.783 17.8593 28.783 18.0319C28.6967 18.2044 28.6104 18.377 28.5242 18.4633C29.0418 18.2907 29.6457 18.2044 30.2497 18.2044C30.7673 18.2044 31.285 18.377 31.8026 18.6358C32.1477 18.8084 32.4065 19.0672 32.5791 19.326C32.7516 19.5848 32.7516 19.8437 32.7516 20.1025C32.6653 20.3613 32.5791 20.6201 32.4065 20.8789C32.1477 21.1378 31.8889 21.3966 31.5438 21.5691C31.1987 21.7417 30.7673 21.9142 30.3359 22.0868C29.9908 22.1731 29.5595 22.2593 29.1281 22.2593C28.6967 22.2593 28.3516 22.2593 27.9202 22.1731C27.4889 22.0868 27.1438 22.0005 26.7124 21.9142L26.9712 21.4829C27.0575 21.3966 27.1438 21.3103 27.3163 21.224C27.4889 21.224 27.6614 21.224 27.7477 21.224L28.3516 21.3103C28.5242 21.3103 28.783 21.3966 28.9555 21.3103C29.2144 21.3103 29.3869 21.3103 29.6457 21.224C29.9046 21.1378 30.1634 21.0515 30.3359 20.8789C30.5085 20.7927 30.681 20.6201 30.8536 20.4476C30.9399 20.275 31.0261 20.1888 31.0261 20.0162C31.0261 19.8437 30.9399 19.7574 30.8536 19.5848C30.7673 19.4123 30.5948 19.326 30.5085 19.2397C30.3359 19.1535 30.0771 19.0672 29.9046 18.9809C29.6457 18.8946 29.4732 18.8946 29.2144 18.8946C28.9555 18.8946 28.6104 18.9809 28.3516 19.0672C28.0065 19.2397 27.6614 19.326 27.3163 19.5848L26.4536 19.0672C26.7124 18.8946 26.9712 18.7221 27.1438 18.5495C27.3163 18.4633 27.4026 18.2907 27.4026 18.1182C27.4026 17.9456 27.4026 17.8593 27.3163 17.6868C27.2301 17.5142 27.0575 17.428 26.885 17.3417C26.7124 17.2554 26.4536 17.1691 26.281 17.0829C26.1085 16.9966 25.8497 16.9966 25.6771 16.9966C25.5046 16.9966 25.2457 16.9966 25.0732 17.0829C24.9006 17.1691 24.6418 17.2554 24.4693 17.3417C24.2967 17.428 24.2104 17.5142 24.0379 17.6868C23.9516 17.7731 23.8653 17.9456 23.8653 18.0319C23.8653 18.1182 23.8653 18.2907 23.8653 18.377C23.9516 18.4633 24.0379 18.6358 24.1242 18.7221C24.2104 18.8084 24.2104 18.8946 24.2104 18.9809C24.2104 19.0672 24.0379 19.1535 23.8653 19.2397L23.2614 19.6711Z" fill="url(#paint9_linear_1846_3185)"></path><path d="M36.6355 13.9767C37.2394 14.3218 37.7571 14.6669 38.1884 15.0983C38.5335 15.3571 38.7061 15.7885 38.7924 16.1336C38.8786 16.4787 38.7924 16.8238 38.6198 17.0826C38.361 17.4277 38.1022 17.6865 37.7571 17.8591C37.3257 18.1179 36.8943 18.2905 36.3767 18.3767C35.859 18.463 35.2551 18.5493 34.7375 18.463C34.1335 18.3767 33.4433 18.2905 32.8394 18.1179C32.1492 17.8591 31.459 17.6003 30.8551 17.2552C30.2512 16.9101 29.7335 16.565 29.3022 16.1336C28.9571 15.8748 28.7845 15.4434 28.612 15.0983C28.5257 14.7532 28.612 14.4081 28.7845 14.1493C29.0433 13.8042 29.3022 13.5454 29.6473 13.3728C30.0786 13.114 30.51 12.9414 31.0277 12.8552C31.5453 12.7689 32.1492 12.6826 32.6669 12.7689C33.2708 12.8552 33.8747 12.9414 34.4786 13.114C35.3414 13.2865 36.0316 13.5454 36.6355 13.9767ZM35.4277 14.6669C34.91 14.3218 34.3924 14.1493 33.8747 13.8905C33.4433 13.7179 33.012 13.6316 32.5806 13.5454C32.2355 13.4591 31.8904 13.4591 31.5453 13.5454C31.2865 13.6316 31.0277 13.7179 30.7688 13.8042C30.5963 13.8905 30.4237 14.063 30.3375 14.2356C30.2512 14.4081 30.2512 14.6669 30.3375 14.8395C30.4237 15.0983 30.6826 15.3571 30.9414 15.6159C31.3728 15.961 31.8041 16.3061 32.2355 16.565C32.7531 16.8238 33.2708 17.0826 33.7884 17.3414C34.2198 17.514 34.6512 17.6003 35.0826 17.6865C35.4277 17.7728 35.7728 17.7728 36.1179 17.6865C36.3767 17.6003 36.6355 17.514 36.8943 17.4277C37.0669 17.3414 37.2394 17.1689 37.3257 16.9963C37.412 16.8238 37.412 16.565 37.3257 16.3924C37.2394 16.1336 36.9806 15.8748 36.7218 15.6159C36.3767 15.1846 35.9453 14.9258 35.4277 14.6669Z" fill="url(#paint10_linear_1846_3185)"></path><path opacity="0.3" d="M53.8 20.8785L28.6078 36.1491L1 19.9294" stroke="url(#paint11_linear_1846_3185)" stroke-width="0.78" stroke-miterlimit="10"></path><path opacity="0.3" d="M53.7976 17.8586L28.6055 33.0429L1.60156 16.9958" stroke="url(#paint12_linear_1846_3185)" stroke-width="0.78" stroke-miterlimit="10"></path><defs><linearGradient id="paint0_linear_1846_3185" x1="28.6103" y1="47.0806" x2="2.4475" y2="42.4675" gradientUnits="userSpaceOnUse"><stop stop-color="#001DAC"></stop><stop offset="1" stop-color="#000F57"></stop></linearGradient><linearGradient id="paint1_linear_1846_3185" x1="52.5078" y1="47.0806" x2="26.6077" y2="42.5626" gradientUnits="userSpaceOnUse"><stop stop-color="#001DAC"></stop><stop offset="1" stop-color="#000F57"></stop></linearGradient><linearGradient id="paint2_linear_1846_3185" x1="4.36719" y1="17.3285" x2="54.4966" y2="25.5206" gradientUnits="userSpaceOnUse"><stop stop-color="#0082F8"></stop><stop offset="1" stop-color="#1C40F2"></stop></linearGradient><linearGradient id="paint3_linear_1846_3185" x1="-0.136343" y1="27.0299" x2="24.0378" y2="27.0299" gradientUnits="userSpaceOnUse"><stop stop-color="#989AAD"></stop><stop offset="1" stop-color="#98A0B7"></stop></linearGradient><linearGradient id="paint4_linear_1846_3185" x1="58.7023" y1="27.0299" x2="59.125" y2="27.0299" gradientUnits="userSpaceOnUse"><stop stop-color="#E7E9E9"></stop><stop offset="1" stop-color="#98AACD"></stop></linearGradient><linearGradient id="paint5_linear_1846_3185" x1="43.2539" y1="26.4995" x2="14.2225" y2="5.50029" gradientUnits="userSpaceOnUse"><stop stop-color="#CDD3DB"></stop><stop offset="1" stop-color="#ACB0C2"></stop></linearGradient><linearGradient id="paint6_linear_1846_3185" x1="3.43542" y1="16.4049" x2="8.59464" y2="16.4049" gradientUnits="userSpaceOnUse"><stop stop-color="#989AAD"></stop><stop offset="1" stop-color="#98A0B7"></stop></linearGradient><linearGradient id="paint7_linear_1846_3185" x1="39.743" y1="10.8749" x2="40.1571" y2="10.8749" gradientUnits="userSpaceOnUse"><stop stop-color="#E7E9E9"></stop><stop offset="1" stop-color="#98AACD"></stop></linearGradient><linearGradient id="paint8_linear_1846_3185" x1="25.4279" y1="13.1811" x2="12.7197" y2="3.98424" gradientUnits="userSpaceOnUse"><stop stop-color="#CDD3DB"></stop><stop offset="1" stop-color="#ACB0C2"></stop></linearGradient><linearGradient id="paint9_linear_1846_3185" x1="22.4492" y1="16.742" x2="33.1709" y2="18.5135" gradientUnits="userSpaceOnUse"><stop stop-color="#0082F8"></stop><stop offset="1" stop-color="#1C40F2"></stop></linearGradient><linearGradient id="paint10_linear_1846_3185" x1="28.5781" y1="13.155" x2="39.2277" y2="14.9623" gradientUnits="userSpaceOnUse"><stop stop-color="#0082F8"></stop><stop offset="1" stop-color="#1C40F2"></stop></linearGradient><linearGradient id="paint11_linear_1846_3185" x1="0.82978" y1="28.077" x2="53.9484" y2="28.077" gradientUnits="userSpaceOnUse"><stop stop-color="#050505"></stop><stop offset="1" stop-color="#ACB0C2"></stop></linearGradient><linearGradient id="paint12_linear_1846_3185" x1="1.39485" y1="25.0927" x2="53.946" y2="25.0927" gradientUnits="userSpaceOnUse"><stop stop-color="#050505"></stop><stop offset="1" stop-color="#ACB0C2"></stop></linearGradient></defs></svg>