<svg xmlns="http://www.w3.org/2000/svg" width="42" height="51" viewBox="0 0 42 51" fill="none"><path opacity="0.05" fill-rule="evenodd" clip-rule="evenodd" d="M6.04159 30.5169C15.1416 25.8394 26.0769 25.8394 35.1769 30.5169C43.2063 35.1944 43.2063 42.8143 35.1769 47.4918C26.0769 52.1693 15.1416 52.1693 6.04159 47.4918C-1.98782 42.8143 -1.98782 35.2699 6.04159 30.5169Z" fill="url(#paint0_linear_1846_3188)"></path><path fill-rule="evenodd" clip-rule="evenodd" d="M0 25.6884C9.17647 21.0109 32.0412 21.0863 41.2176 25.7639C41.2176 29.536 41.2176 29.9133 41.2176 33.0065C41.2176 36.0997 39.1529 39.042 35.1765 41.3807C26.0765 46.0582 15.1412 46.0582 6.04118 41.3807C1.98823 39.042 0 36.0242 0 32.931C0 29.8378 0 30.2905 0 25.6884Z" fill="url(#paint1_linear_1846_3188)"></path><path fill-rule="evenodd" clip-rule="evenodd" d="M6.04159 17.1634C15.1416 12.4859 26.0769 12.4859 35.1769 17.1634C43.2063 21.8409 43.2063 29.4607 35.1769 34.1383C26.0769 38.8158 15.1416 38.8158 6.04159 34.1383C-1.98782 29.4607 -1.98782 21.9164 6.04159 17.1634Z" fill="url(#paint2_linear_1846_3188)"></path><path fill-rule="evenodd" clip-rule="evenodd" d="M0 11.5807C9.17647 6.90324 32.0412 6.97868 41.2176 11.6562C41.2176 15.4284 41.2176 16.1828 41.2176 19.276C41.2176 22.3692 39.1529 25.3115 35.1765 27.6503C26.0765 32.3278 15.1412 32.3278 6.04118 27.6503C2.06471 25.3115 0 22.2938 0 19.2006C0 16.1074 0 16.2583 0 11.5807Z" fill="url(#paint3_linear_1846_3188)"></path><path fill-rule="evenodd" clip-rule="evenodd" d="M6.04159 3.50814C15.1416 -1.16938 26.0769 -1.16938 35.1769 3.50814C43.2063 8.18565 43.2063 15.73 35.1769 20.483C26.0769 25.1605 15.1416 25.1605 6.04159 20.483C-1.98782 15.8055 -1.98782 8.18565 6.04159 3.50814Z" fill="url(#paint4_linear_1846_3188)"></path><path d="M21.5644 11.7315L14.0703 7.35571" stroke="url(#paint5_linear_1846_3188)" stroke-width="2" stroke-linecap="round" stroke-linejoin="round"></path><path d="M25.4631 8.86475L21.4102 11.4298" stroke="url(#paint6_linear_1846_3188)" stroke-width="2" stroke-linecap="round" stroke-linejoin="round"></path><path fill-rule="evenodd" clip-rule="evenodd" d="M19.8724 10.8953C20.943 10.3672 22.1665 10.3672 23.1607 10.8953C23.696 11.1217 24.0018 11.6498 23.7724 12.1779C23.696 12.4797 23.4665 12.706 23.1607 12.7814C22.0901 13.3095 20.8665 13.3095 19.8724 12.7814C19.3371 12.5551 19.0312 12.027 19.2607 11.4989C19.3371 11.1971 19.5665 10.9708 19.8724 10.8953Z" fill="url(#paint7_linear_1846_3188)"></path><path opacity="0.95" d="M11.3927 5.77154L9.86328 4.86621" stroke="#818696" stroke-width="2" stroke-linecap="round" stroke-linejoin="round"></path><path opacity="0.95" d="M6.27054 12.0332L4.51172 11.9578" stroke="#818696" stroke-linecap="round" stroke-linejoin="round"></path><path opacity="0.95" d="M37.4714 12.0332L35.7891 11.9578" stroke="#818696" stroke-linecap="round" stroke-linejoin="round"></path><path opacity="0.95" d="M33.1881 18.295L31.0469 17.0879" stroke="#818696" stroke-width="2" stroke-linecap="round" stroke-linejoin="round"></path><path d="M30.3594 5.99785L31.9653 5.09253" stroke="#818696" stroke-width="2" stroke-linecap="round" stroke-linejoin="round"></path><path d="M8.79297 18.5216L10.7812 17.3145" stroke="#818696" stroke-width="2" stroke-linecap="round" stroke-linejoin="round"></path><path opacity="0.5" d="M7.64632 4.48877C15.7522 0.339357 25.3875 0.339357 33.4934 4.48877C40.6051 8.63817 40.6051 15.3527 33.4934 19.5021C25.3875 23.6515 15.7522 23.6515 7.64632 19.5021C0.534559 15.3527 0.534559 8.63817 7.64632 4.48877Z" stroke="#818696" stroke-linecap="round" stroke-linejoin="round"></path><path opacity="0.95" d="M21.0296 19.5779L20.9531 21.2376" stroke="#818696" stroke-linecap="round" stroke-linejoin="round"></path><path opacity="0.95" d="M21.0296 2.37671L20.9531 4.03647" stroke="#818696" stroke-linecap="round" stroke-linejoin="round"></path><defs><linearGradient id="paint0_linear_1846_3188" x1="43.6498" y1="36.1752" x2="2.77067" y2="41.3663" gradientUnits="userSpaceOnUse"><stop></stop><stop offset="1"></stop></linearGradient><linearGradient id="paint1_linear_1846_3188" x1="-2.87885e-07" y1="23.8766" x2="42.7773" y2="31.3019" gradientUnits="userSpaceOnUse"><stop stop-color="#0082F8"></stop><stop offset="1" stop-color="#1C40F2"></stop></linearGradient><linearGradient id="paint2_linear_1846_3188" x1="41.1989" y1="32.564" x2="-1.26714" y2="20.6264" gradientUnits="userSpaceOnUse"><stop stop-color="#001DAC"></stop><stop offset="1" stop-color="#000F57"></stop></linearGradient><linearGradient id="paint3_linear_1846_3188" x1="42.4335" y1="19.5259" x2="-9.06943" y2="19.8514" gradientUnits="userSpaceOnUse"><stop offset="0.42" stop-color="#E7E9E9"></stop><stop offset="0.68" stop-color="#B1B4C3"></stop><stop offset="0.88" stop-color="#8F92AA"></stop><stop offset="0.99" stop-color="#8285A1"></stop></linearGradient><linearGradient id="paint4_linear_1846_3188" x1="43.6498" y1="9.11361" x2="2.77067" y2="14.3047" gradientUnits="userSpaceOnUse"><stop stop-color="#CDD3DB"></stop><stop offset="1" stop-color="#ACB0C2"></stop></linearGradient><linearGradient id="paint5_linear_1846_3188" x1="14.0703" y1="7.67589" x2="21.8737" y2="8.95186" gradientUnits="userSpaceOnUse"><stop stop-color="#0082F8"></stop><stop offset="1" stop-color="#1C40F2"></stop></linearGradient><linearGradient id="paint6_linear_1846_3188" x1="21.4102" y1="9.05244" x2="25.6468" y2="9.69154" gradientUnits="userSpaceOnUse"><stop stop-color="#0082F8"></stop><stop offset="1" stop-color="#1C40F2"></stop></linearGradient><linearGradient id="paint7_linear_1846_3188" x1="19.1836" y1="10.6952" x2="24.0377" y2="11.5026" gradientUnits="userSpaceOnUse"><stop stop-color="#0082F8"></stop><stop offset="1" stop-color="#1C40F2"></stop></linearGradient></defs></svg>