<svg width="75" height="81" viewBox="0 0 75 81" fill="none" xmlns="http://www.w3.org/2000/svg">
<path opacity="0.15" d="M0 59.1388L37.0833 80.7146L74.1667 59.0714L37.0833 37.4282L0 59.1388Z" fill="url(#paint0_linear_1839_2275)"/>
<path d="M40.7917 65.8815L0 48.0815V52.5315L37.0833 74.1747L40.7917 65.8815Z" fill="url(#paint1_linear_1839_2275)"/>
<path d="M74.0979 52.5311V48.0137L37.082 62.4425V74.1743L74.0979 52.5311Z" fill="url(#paint2_linear_1839_2275)"/>
<path d="M0 48.0812L37.0833 69.657L74.0992 48.0138L37.0833 26.3706L0 48.0812Z" fill="url(#paint3_linear_1839_2275)"/>
<path opacity="0.3" fill-rule="evenodd" clip-rule="evenodd" d="M53.1936 47.5016L52.9306 47.6499L35.1374 57.8984C30.5795 60.528 23.1898 60.5347 18.6387 57.8984C14.9708 55.7881 14.2561 52.6191 16.4878 50.084C11.9771 47.1173 12.1794 42.5931 17.0946 39.7546C20.54 37.7318 25.4215 37.1115 29.8176 37.7925C30.6 36.9021 31.5308 36.1539 32.5685 35.581C38.2658 32.2907 47.4962 32.2907 53.2003 35.581C58.9044 38.8713 58.8909 44.1911 53.1936 47.5016Z" fill="url(#paint4_linear_1839_2275)"/>
<path fill-rule="evenodd" clip-rule="evenodd" d="M53.6202 39.2556L53.3505 39.404L35.5236 49.6794C30.9657 52.3224 23.576 52.3224 19.0181 49.6794C16.8538 48.4321 15.7143 46.8139 15.6132 45.1552C15.5795 44.0023 15.6132 41.7031 15.6132 40.8536C15.0517 40.3832 14.5892 39.8061 14.2524 39.1556C13.9156 38.5052 13.7112 37.7943 13.6511 37.0643C13.5635 35.0416 13.6107 30.0455 13.6511 27.4766C17.0965 25.4539 25.7875 28.8656 30.2038 29.5533C30.9938 28.668 31.9258 27.9206 32.9614 27.3418C38.6588 24.0515 52.1639 20.5993 57.8545 23.8964C57.9354 29.0004 57.9219 31.3131 57.8545 33.5381C57.7331 35.6417 56.3105 37.6846 53.6202 39.2556Z" fill="url(#paint5_linear_1839_2275)"/>
<path fill-rule="evenodd" clip-rule="evenodd" d="M53.5725 30.0523L53.3095 30.2006L35.5163 40.476C30.9584 43.1326 23.5957 43.1326 19.0176 40.476C15.3497 38.3657 14.635 35.1967 16.8667 32.6616C12.356 29.6882 12.5583 25.1707 17.4735 22.3254C20.9189 20.3432 25.8072 19.6891 30.1898 20.3701C30.9787 19.4912 31.9112 18.7525 32.9474 18.1856C38.6448 14.8953 47.8751 14.8885 53.5792 18.1856C59.2833 21.4826 59.2698 26.762 53.5725 30.0523Z" fill="url(#paint6_linear_1839_2275)"/>
<path fill-rule="evenodd" clip-rule="evenodd" d="M53.6202 23.3772L53.3505 23.5255L35.5236 33.801C30.9657 36.4305 23.576 36.4373 19.0181 33.801C16.847 32.5469 15.7143 30.9355 15.6132 29.2903C15.5795 28.1441 15.6132 25.8382 15.6132 24.9954C14.4867 24.0391 13.7819 22.678 13.6511 21.2061C13.5635 19.1834 13.6107 14.1873 13.6511 11.6117C17.0965 9.58895 25.7875 13.0074 30.2038 13.6951C30.9901 12.806 31.9228 12.058 32.9614 11.4836C38.6588 8.18653 52.1639 4.74115 57.8545 8.03819C57.9354 13.1422 57.9219 15.4549 57.8545 17.6799C57.7331 19.7565 56.3105 21.8062 53.6202 23.3772Z" fill="url(#paint7_linear_1839_2275)"/>
<path fill-rule="evenodd" clip-rule="evenodd" d="M53.6197 14.5308L53.35 14.6792L35.523 24.9276C30.9651 27.5842 23.5957 27.5842 19.0176 24.9276C15.3564 22.8105 14.6417 19.6416 16.8667 17.1132C12.356 14.1398 12.5583 9.61559 17.4735 6.77703C20.8987 4.77453 25.8072 4.15423 30.1965 4.83521C30.9865 3.94998 31.9185 3.20257 32.9541 2.6237C38.6515 -0.693576 47.8684 -0.693576 53.586 2.6237C59.3035 5.94097 59.2833 11.2338 53.6197 14.5308Z" fill="url(#paint8_linear_1839_2275)"/>
<path fill-rule="evenodd" clip-rule="evenodd" d="M63.5747 42.2766C64.9291 39.1838 65.6644 35.8555 65.739 32.4799C65.739 30.5448 68.2809 27.2612 66.9931 26.5331C65.4423 25.6566 61.9497 23.7687 61.0125 23.4113C58.7875 22.5685 55.9422 22.9596 52.8475 24.8003C45.7275 29.0412 39.9492 39.3572 39.9492 47.8526C39.9492 50.9406 40.7179 53.3544 42.0326 54.9794L46.7523 57.555L63.5747 42.2766Z" fill="url(#paint9_linear_1839_2275)"/>
<path fill-rule="evenodd" clip-rule="evenodd" d="M68.3474 44.8517C69.7027 41.7544 70.438 38.4215 70.5117 35.0414C70.5117 26.546 64.7267 23.1006 57.5932 27.3483C50.4597 31.596 44.668 41.9187 44.668 50.4209C44.668 53.5157 45.4366 55.9362 46.7581 57.5611L68.3474 44.8517Z" fill="url(#paint10_linear_1839_2275)"/>
<path d="M66.7474 39.0264C66.7879 38.5747 66.8216 38.1297 66.8216 37.6779C66.8216 31.9671 62.9312 29.6544 58.1374 32.5065C53.3435 35.3585 49.4531 42.31 49.4531 48.014C49.4531 48.3714 49.4531 48.6883 49.5071 49.0456" stroke="white" stroke-width="2" stroke-linecap="round" stroke-linejoin="round"/>
<path d="M58.6094 42.8022L58.697 36.1069" stroke="white" stroke-width="1.2" stroke-linecap="round" stroke-linejoin="round"/>
<path fill-rule="evenodd" clip-rule="evenodd" d="M58.6606 41.1099C59.4562 40.6312 60.1034 41.0222 60.1034 41.9729C60.073 42.4796 59.9272 42.9726 59.6772 43.4143C59.4271 43.856 59.0794 44.2347 58.6606 44.5215C57.8582 44.9935 57.2109 44.6092 57.2109 43.6585C57.2401 43.1508 57.3861 42.6566 57.6375 42.2146C57.889 41.7725 58.2391 41.3945 58.6606 41.1099Z" fill="white"/>
<path d="M29.1343 21.648L22.5381 16.0663L23.9181 15.28L29.1782 19.8751L27.917 13.0015L29.2768 12.2267L30.7157 20.7469L29.1343 21.648ZM33.9311 18.9148L29.9136 11.8639L32.5225 10.3774C33.0866 10.056 33.6068 9.88408 34.0833 9.86166C34.5598 9.83925 34.9824 9.94091 35.3512 10.1666C35.72 10.3924 36.0211 10.7101 36.2545 11.1197C36.4764 11.5092 36.5938 11.9182 36.6067 12.3467C36.6158 12.7685 36.493 13.1854 36.2385 13.5973C35.9801 14.0025 35.5622 14.3696 34.9846 14.6986L33.6651 15.4505L35.2205 18.1802L33.9311 18.9148ZM33.0682 14.4029L34.3072 13.697C34.7571 13.4406 35.0239 13.1596 35.1077 12.8539C35.1944 12.5376 35.1402 12.2083 34.945 11.8658C34.7461 11.5166 34.4904 11.302 34.178 11.2221C33.8684 11.1316 33.4887 11.2145 33.0388 11.4709L31.7998 12.1768L33.0682 14.4029ZM42.3244 14.2926C41.8073 14.5872 41.301 14.7601 40.8053 14.8113C40.3058 14.8557 39.8481 14.7785 39.4323 14.5795C39.0127 14.3738 38.6637 14.0345 38.3853 13.5616L39.7452 12.7868C39.9461 13.1082 40.2224 13.3199 40.5741 13.4219C40.9286 13.5134 41.304 13.4463 41.7002 13.2206C42.0427 13.0254 42.2688 12.7899 42.3784 12.5139C42.4842 12.2313 42.4587 11.9523 42.3018 11.677C42.1373 11.3882 41.9184 11.2149 41.6453 11.157C41.3789 11.0954 41.0692 11.0983 40.7163 11.166C40.3635 11.2336 39.9867 11.306 39.5858 11.3831C38.9348 11.505 38.3807 11.5005 37.9236 11.3695C37.4732 11.2348 37.1083 10.9223 36.829 10.4321C36.5851 10.0196 36.4797 9.60817 36.5128 9.19792C36.5488 8.77712 36.6988 8.38474 36.9629 8.02079C37.2231 7.65012 37.5849 7.33278 38.0483 7.06877C38.5183 6.80094 38.9792 6.64957 39.4307 6.61466C39.889 6.57592 40.305 6.65026 40.6786 6.83765C41.0589 7.02123 41.3744 7.31736 41.6251 7.72605L40.2451 8.51234C40.0968 8.2677 39.8751 8.10493 39.58 8.02404C39.2877 7.93261 38.977 7.98063 38.648 8.16812C38.3621 8.3221 38.1639 8.52844 38.0533 8.78714C37.9457 9.03529 37.9703 9.29703 38.1271 9.57235C38.261 9.80739 38.442 9.95332 38.6701 10.0102C38.8944 10.0603 39.1609 10.0597 39.4696 10.0083C39.7784 9.9569 40.1279 9.89119 40.5182 9.81115C40.9362 9.73306 41.3355 9.69234 41.7161 9.68897C42.0967 9.68561 42.4508 9.7685 42.7785 9.93762C43.1023 10.1 43.3828 10.3894 43.62 10.8058C43.8305 11.1751 43.9316 11.5711 43.9234 11.9939C43.9152 12.4166 43.7819 12.8306 43.5235 13.2358C43.2613 13.6343 42.8616 13.9865 42.3244 14.2926Z" fill="#9195A8"/>
<defs>
<linearGradient id="paint0_linear_1839_2275" x1="59.9604" y1="75.6578" x2="15.1705" y2="43.2537" gradientUnits="userSpaceOnUse">
<stop/>
<stop offset="1"/>
</linearGradient>
<linearGradient id="paint1_linear_1839_2275" x1="-2.84761e-07" y1="49.9908" x2="42.6391" y2="56.3516" gradientUnits="userSpaceOnUse">
<stop stop-color="#18029D"/>
<stop offset="1" stop-color="#1C40F2"/>
</linearGradient>
<linearGradient id="paint2_linear_1839_2275" x1="37.082" y1="49.9279" x2="75.9468" y2="55.1782" gradientUnits="userSpaceOnUse">
<stop stop-color="#0082F8"/>
<stop offset="1" stop-color="#1C40F2"/>
</linearGradient>
<linearGradient id="paint3_linear_1839_2275" x1="74.0992" y1="60.4869" x2="-2.34526" y2="39.0554" gradientUnits="userSpaceOnUse">
<stop stop-color="#001DAC"/>
<stop offset="1" stop-color="#000F57"/>
</linearGradient>
<linearGradient id="paint4_linear_1839_2275" x1="64.622" y1="35.1562" x2="37.3691" y2="44.8181" gradientUnits="userSpaceOnUse">
<stop/>
<stop offset="1"/>
</linearGradient>
<linearGradient id="paint5_linear_1839_2275" x1="55.8789" y1="27.571" x2="10.7586" y2="43.5506" gradientUnits="userSpaceOnUse">
<stop offset="0.42" stop-color="#E7E9E9"/>
<stop offset="0.68" stop-color="#B1B4C3"/>
<stop offset="0.88" stop-color="#8F92AA"/>
<stop offset="0.99" stop-color="#8285A1"/>
</linearGradient>
<linearGradient id="paint6_linear_1839_2275" x1="55.993" y1="20.9432" x2="8.97135" y2="37.597" gradientUnits="userSpaceOnUse">
<stop stop-color="#CDD3DB"/>
<stop offset="0.59" stop-color="#B7BBCA"/>
<stop offset="1" stop-color="#ACB0C2"/>
</linearGradient>
<linearGradient id="paint7_linear_1839_2275" x1="55.8789" y1="11.6993" x2="10.7654" y2="27.6789" gradientUnits="userSpaceOnUse">
<stop offset="0.42" stop-color="#E7E9E9"/>
<stop offset="0.68" stop-color="#B1B4C3"/>
<stop offset="0.88" stop-color="#8F92AA"/>
<stop offset="0.99" stop-color="#8285A1"/>
</linearGradient>
<linearGradient id="paint8_linear_1839_2275" x1="55.993" y1="5.38809" x2="8.9646" y2="22.0486" gradientUnits="userSpaceOnUse">
<stop stop-color="#CDD3DB"/>
<stop offset="0.59" stop-color="#B7BBCA"/>
<stop offset="1" stop-color="#ACB0C2"/>
</linearGradient>
<linearGradient id="paint9_linear_1839_2275" x1="67.3572" y1="50.232" x2="37.3651" y2="46.3374" gradientUnits="userSpaceOnUse">
<stop stop-color="#001DAC"/>
<stop offset="1" stop-color="#000F57"/>
</linearGradient>
<linearGradient id="paint10_linear_1839_2275" x1="44.668" y1="27.8731" x2="72.1347" y2="29.9889" gradientUnits="userSpaceOnUse">
<stop stop-color="#0082F8"/>
<stop offset="1" stop-color="#1C40F2"/>
</linearGradient>
</defs>
</svg>
