<svg width="74" height="80" viewBox="0 0 74 80" fill="none" xmlns="http://www.w3.org/2000/svg">
<g clip-path="url(#clip0_1839_2236)">
<path opacity="0.1" d="M0 58.5791L37 79.9999L74 58.5122L37 37.0244L0 58.5791Z" fill="url(#paint0_linear_1839_2236)"/>
<path d="M40.7 65.2732L0 47.6011V52.0191L37 73.5069L40.7 65.2732Z" fill="url(#paint1_linear_1839_2236)"/>
<path d="M73.9327 52.0192V47.5342L37 61.8593V73.5069L73.9327 52.0192Z" fill="url(#paint2_linear_1839_2236)"/>
<path d="M0 47.6011L37 69.0219L73.9327 47.5341L37 26.0464L0 47.6011Z" fill="url(#paint3_linear_1839_2236)"/>
<path opacity="0.3" fill-rule="evenodd" clip-rule="evenodd" d="M53.0765 47.0252L52.8141 47.1725L35.0608 57.3474C30.5132 59.958 23.1401 59.9647 18.5992 57.3474C14.9396 55.2522 14.2265 52.106 16.4532 49.589C11.9527 46.6437 12.1545 42.152 17.0587 39.3338C20.4963 37.3256 25.3668 36.7098 29.753 37.3859C30.5337 36.5018 31.4623 35.759 32.4977 35.1902C38.1823 31.9236 47.3919 31.9236 53.0832 35.1902C58.7745 38.4569 58.761 43.7385 53.0765 47.0252Z" fill="url(#paint4_linear_1839_2236)"/>
<path fill-rule="evenodd" clip-rule="evenodd" d="M53.503 38.825L53.2339 38.9723L35.447 49.1873C30.8993 51.8113 23.5262 51.8113 18.9786 49.1873C16.8191 47.9489 15.6822 46.3423 15.5813 44.6956C15.5477 43.5509 15.5813 41.2683 15.5813 40.4248C15.0211 39.9578 14.5596 39.3849 14.2236 38.7391C13.8875 38.0933 13.6836 37.3876 13.6237 36.6628C13.5362 34.6546 13.5833 29.6944 13.6237 27.144C17.0613 25.1358 25.7328 28.5229 30.1391 29.2057C30.9274 28.3268 31.8572 27.5848 32.8906 27.0101C38.5751 23.7434 52.0499 20.3161 57.7277 23.5894C57.8084 28.6568 57.795 30.9528 57.7277 33.1619C57.6066 35.2504 56.1871 37.2787 53.503 38.825Z" fill="url(#paint5_linear_1839_2236)"/>
<path fill-rule="evenodd" clip-rule="evenodd" d="M53.4532 29.7011L53.1908 29.8484L35.4376 40.05C30.8899 42.6875 23.5438 42.6875 18.9759 40.05C15.3163 37.9548 14.6032 34.8086 16.8165 32.2917C12.3159 29.3396 12.5178 24.8546 17.4219 22.0298C20.8528 20.0818 25.7503 19.4124 30.123 20.0818C30.9102 19.2092 31.8406 18.4758 32.8745 17.913C38.559 14.6463 47.7687 14.6396 53.4599 17.913C59.1512 21.1863 59.1378 26.4344 53.4532 29.7011Z" fill="url(#paint6_linear_1839_2236)"/>
<path fill-rule="evenodd" clip-rule="evenodd" d="M53.503 23.0743L53.2339 23.2216L35.447 33.4233C30.8993 36.0339 23.5262 36.0406 18.9786 33.4233C16.8124 32.1782 15.6822 30.5783 15.5813 28.945C15.5477 27.807 15.5813 25.5177 15.5813 24.6809C14.4574 23.7315 13.7542 22.3801 13.6237 20.9189C13.5362 18.9107 13.5833 13.9504 13.6237 11.3933C17.0613 9.38512 25.7328 12.779 30.1391 13.4618C30.9237 12.5791 31.8543 11.8365 32.8906 11.2661C38.5751 7.99276 52.0499 4.57213 57.7277 7.8455C57.8084 12.9129 57.795 15.2089 57.7277 17.4179C57.6066 19.4797 56.1871 21.5146 53.503 23.0743Z" fill="url(#paint7_linear_1839_2236)"/>
<path fill-rule="evenodd" clip-rule="evenodd" d="M53.5025 14.2916L53.2334 14.4389L35.4465 24.6138C30.8988 27.2512 23.5459 27.2512 18.9781 24.6138C15.3252 22.5119 14.6121 19.3657 16.8321 16.8554C12.3316 13.9034 12.5334 9.4117 17.4376 6.59353C20.855 4.60541 25.7525 4.01634 30.1319 4.68574C30.9201 3.80686 31.85 3.06482 32.8834 2.49011C38.5679 -0.803342 47.7641 -0.803342 53.4688 2.49011C59.1736 5.78355 59.1534 11.0183 53.5025 14.2916Z" fill="url(#paint8_linear_1839_2236)"/>
<path fill-rule="evenodd" clip-rule="evenodd" d="M63.1156 41.3489C64.4412 38.3695 65.1679 35.1608 65.2548 31.9036C65.2548 30.036 67.7237 26.8631 66.4657 26.1602C64.9656 25.3167 61.575 23.4826 60.6668 23.1479C58.5074 22.3312 55.7425 22.7061 52.7354 24.4867C45.8265 28.5834 40.2227 38.5441 40.2227 46.7375C40.2227 49.7231 40.9627 52.0526 42.2408 53.619L46.8356 56.1091L63.1156 41.3489Z" fill="url(#paint9_linear_1839_2236)"/>
<path fill-rule="evenodd" clip-rule="evenodd" d="M67.7527 43.8522C69.0702 40.8575 69.7856 37.6351 69.8583 34.3668C69.8583 26.1533 64.2411 22.8263 57.312 26.9365C50.3829 31.0466 44.7656 40.9939 44.7656 49.2342C44.7656 52.2264 45.5124 54.5894 46.7838 56.1357L67.7527 43.8522Z" fill="url(#paint10_linear_1839_2236)"/>
<path d="M66.2142 38.2229C66.2624 37.7962 66.2871 37.3671 66.2882 36.9377C66.2882 31.4218 62.5142 29.186 57.859 31.944C53.2037 34.7019 49.4297 41.4093 49.4297 46.9251C49.4307 47.2583 49.4486 47.5912 49.4835 47.9226" stroke="white" stroke-width="2.34" stroke-linecap="round" stroke-linejoin="round"/>
<path d="M58.3052 41.8711L52.4727 44.9838" stroke="white" stroke-width="1.46" stroke-linecap="round" stroke-linejoin="round"/>
<path fill-rule="evenodd" clip-rule="evenodd" d="M58.3591 40.2041C59.1328 39.7489 59.7584 40.1171 59.7584 41.0408C59.7326 41.5321 59.5929 42.0108 59.3501 42.4393C59.1073 42.8678 58.7682 43.2346 58.3591 43.5109C57.5855 43.9728 56.9531 43.5979 56.9531 42.6809C56.9822 42.1887 57.124 41.7096 57.3677 41.2804C57.6114 40.8511 57.9505 40.4829 58.3591 40.2041Z" fill="white"/>
<path fill-rule="evenodd" clip-rule="evenodd" d="M29.8326 8.54807C31.6053 7.59868 33.5847 7.09538 35.5978 7.08208C35.0462 7.39001 34.8309 7.87867 35.5373 8.30709C36.9702 9.184 39.0893 8.30709 41.0806 10.583L42.722 12.4574L34.0707 10.0007C33.9362 10.0007 33.916 9.90695 34.0707 9.83332L34.6897 9.47854V9.43168L34.3062 9.21747C34.2876 9.20751 34.2668 9.2023 34.2457 9.2023C34.2245 9.2023 34.2037 9.20751 34.1851 9.21747C33.0617 9.88687 31.8911 10.5964 30.6802 11.2257C30.6802 11.2257 30.6802 11.2792 30.6802 11.2993L31.0435 11.5068C31.0827 11.5201 31.1253 11.5201 31.1646 11.5068L31.7902 11.1453C31.8399 11.1118 31.8967 11.0901 31.9562 11.082C32.0157 11.0738 32.0763 11.0795 32.1333 11.0985L35.4969 11.9955L38.2349 15.135L29.4357 12.6381C29.328 12.6046 29.3146 12.5578 29.3953 12.5109L30.068 12.1026L29.8326 8.54807ZM30.068 12.0557L29.698 11.8415C29.6806 11.8315 29.6609 11.8263 29.6408 11.8263C29.6208 11.8263 29.601 11.8315 29.5837 11.8415C28.9109 12.2967 28.1373 12.7318 27.4444 13.1335C26.8524 11.5403 27.6395 9.78646 29.7922 8.56146L30.068 12.0557ZM38.4435 7.2829C39.7286 7.48735 40.9674 7.91563 42.1031 8.54807C44.424 9.88687 45.1506 11.7813 44.2962 13.4749L40.7913 9.26433C40.1379 8.45845 39.3423 7.77791 38.4435 7.25613V7.2829ZM43.8253 14.2112C43.3459 14.7726 42.7695 15.2441 42.1233 15.6035C41.483 15.963 40.8065 16.2547 40.1051 16.4738L36.5262 12.2699L43.8051 14.2045L43.8253 14.2112ZM38.9077 16.775C35.8467 17.4042 32.2947 17.016 29.846 15.6102C29.0393 15.1866 28.3471 14.5759 27.8278 13.8296L38.8807 16.775H38.9077ZM29.254 8.20668C32.9607 6.07129 38.9749 6.07129 42.7086 8.20668C46.4422 10.3421 46.4086 13.7962 42.7086 15.9316C39.0086 18.0669 32.9607 18.0669 29.254 15.9316C25.5473 13.7962 25.5607 10.3421 29.254 8.20668ZM28.8302 7.96569C32.7724 5.69643 39.1633 5.68973 43.1055 7.96569C47.0477 10.2417 47.0409 13.9033 43.1055 16.1725C39.17 18.4418 32.7724 18.4485 28.8369 16.1725C24.9015 13.8966 24.8947 10.2283 28.8369 7.959L28.8302 7.96569Z" fill="url(#paint11_linear_1839_2236)"/>
</g>
<defs>
<linearGradient id="paint0_linear_1839_2236" x1="59.8256" y1="74.9794" x2="15.2889" y2="42.5983" gradientUnits="userSpaceOnUse">
<stop/>
<stop offset="1"/>
</linearGradient>
<linearGradient id="paint1_linear_1839_2236" x1="-2.84121e-07" y1="49.4966" x2="42.5341" y2="55.8733" gradientUnits="userSpaceOnUse">
<stop stop-color="#18029D"/>
<stop offset="1" stop-color="#1C40F2"/>
</linearGradient>
<linearGradient id="paint2_linear_1839_2236" x1="37" y1="49.4346" x2="75.7705" y2="54.6982" gradientUnits="userSpaceOnUse">
<stop stop-color="#0082F8"/>
<stop offset="1" stop-color="#1C40F2"/>
</linearGradient>
<linearGradient id="paint3_linear_1839_2236" x1="73.9327" y1="59.9177" x2="-2.28464" y2="38.4436" gradientUnits="userSpaceOnUse">
<stop stop-color="#001DAC"/>
<stop offset="1" stop-color="#000F57"/>
</linearGradient>
<linearGradient id="paint4_linear_1839_2236" x1="13.2227" y1="34.6842" x2="59.2154" y2="41.9731" gradientUnits="userSpaceOnUse">
<stop stop-color="#18029D"/>
<stop offset="1" stop-color="#1C40F2"/>
</linearGradient>
<linearGradient id="paint5_linear_1839_2236" x1="55.7566" y1="27.2377" x2="10.7876" y2="43.2428" gradientUnits="userSpaceOnUse">
<stop offset="0.42" stop-color="#E7E9E9"/>
<stop offset="0.68" stop-color="#B1B4C3"/>
<stop offset="0.88" stop-color="#8F92AA"/>
<stop offset="0.99" stop-color="#8285A1"/>
</linearGradient>
<linearGradient id="paint6_linear_1839_2236" x1="55.8683" y1="20.6575" x2="9.00435" y2="37.3379" gradientUnits="userSpaceOnUse">
<stop stop-color="#CDD3DB"/>
<stop offset="0.59" stop-color="#B7BBCA"/>
<stop offset="1" stop-color="#ACB0C2"/>
</linearGradient>
<linearGradient id="paint7_linear_1839_2236" x1="55.7566" y1="11.4803" x2="10.7944" y2="27.4854" gradientUnits="userSpaceOnUse">
<stop offset="0.42" stop-color="#E7E9E9"/>
<stop offset="0.68" stop-color="#B1B4C3"/>
<stop offset="0.88" stop-color="#8F92AA"/>
<stop offset="0.99" stop-color="#8285A1"/>
</linearGradient>
<linearGradient id="paint8_linear_1839_2236" x1="55.8705" y1="5.21456" x2="8.99983" y2="21.9017" gradientUnits="userSpaceOnUse">
<stop stop-color="#CDD3DB"/>
<stop offset="0.59" stop-color="#B7BBCA"/>
<stop offset="1" stop-color="#ACB0C2"/>
</linearGradient>
<linearGradient id="paint9_linear_1839_2236" x1="66.823" y1="49.0392" x2="37.7198" y2="45.2401" gradientUnits="userSpaceOnUse">
<stop stop-color="#001DAC"/>
<stop offset="1" stop-color="#000F57"/>
</linearGradient>
<linearGradient id="paint10_linear_1839_2236" x1="44.7656" y1="27.4402" x2="71.4328" y2="29.5037" gradientUnits="userSpaceOnUse">
<stop stop-color="#0082F8"/>
<stop offset="1" stop-color="#1C40F2"/>
</linearGradient>
<linearGradient id="paint11_linear_1839_2236" x1="25.8828" y1="7.11117" x2="46.8766" y2="10.5928" gradientUnits="userSpaceOnUse">
<stop stop-color="#0082F8"/>
<stop offset="1" stop-color="#1C40F2"/>
</linearGradient>
<clipPath id="clip0_1839_2236">
<rect width="74" height="80" fill="white"/>
</clipPath>
</defs>
</svg>
